:SAMPLES-PER-SECOND 30
:FRAME-RANGE 1-2775
:FULLY-SPECIFIED
:DEGREES
694
root  -37.7243 38.2768 37.0259 -178.102 65.0792 170.493
RightUpLeg  -1.66239 -1.21184 -4.33103
RightLeg  18.3673 -8.1582 -3.21743
RightFoot  -22.6452 0.713581 8.75062
RightToes  1.218e-010 1.26228e-014 -6.01869e-014
Spine  -4.19866 3.80111 3.50099
Spine1  11.7391 5.85644 -7.20018
HEad  -8.35506 5.25288 -4.39586
LeftShoulder1  1.54957 -2.22692 -21.9226
LeftArm  11.6833 15.238 -49.4641
LeftForeArm  32.2576 -9.34155 -12.2882
LeftHand  -0.0583673 4.46003 4.81555
RightShoulder  2.79508 6.05732 23.7903
RightArm  -3.19822 16.65 67.7661
RightForeArm  74.5871 -2.81693 13.1699
RightHand  0.274348 -7.72845 -14.664
LeftUpLeg  -33.7949 0.540442 -1.79495
LeftLeg  11.7196 14.1785 2.77172
LeftFoot  -1.51186 0.380159 -4.31519
LeftToes  5.08156e-010 -6.90346e-011 -6.33378e-011
695
root  -37.0211 38.1388 36.3311 179.963 65.4998 169.178
RightUpLeg  -1.36393 0.303001 -5.51941
RightLeg  22.5362 -7.81226 -3.75775
RightFoot  -22.9865 0.984932 11.1614
RightToes  1.218e-010 1.26228e-014 -6.01869e-014
Spine  -4.08935 3.96659 2.67493
Spine1  12.1696 6.1196 -7.43964
HEad  -8.00039 5.02338 -3.39669
LeftShoulder1  1.53788 -2.16493 -22.0326
LeftArm  12.587 16.1421 -49.4629
LeftForeArm  32.103 -9.98601 -12.0485
LeftHand  -0.0600639 4.39218 4.71216
RightShoulder  2.85218 6.1626 24.0782
RightArm  -4.85383 15.7426 66.8923
RightForeArm  76.3615 -5.54879 12.7036
RightHand  0.31097 -7.96366 -14.9734
LeftUpLeg  -32.9503 -0.44471 -2.43317
LeftLeg  13.9625 14.5612 3.96371
LeftFoot  1.29342 0.573815 -5.25288
LeftToes  5.08156e-010 -6.90346e-011 -6.33378e-011
696
root  -36.2731 38.0465 35.6197 178.209 64.7993 168.048
RightUpLeg  -1.94141 1.49506 -6.58488
RightLeg  28.8226 -7.15653 -4.47235
RightFoot  -22.0743 1.22604 14.5824
RightToes  1.218e-010 1.26228e-014 -6.01869e-014
Spine  -4.12066 3.73126 1.1577
Spine1  12.3107 5.67654 -6.84089
HEad  -7.02599 4.54691 -2.05543
LeftShoulder1  1.58292 -2.26368 -22.3626
LeftArm  15.1458 16.6726 -49.1225
LeftForeArm  30.139 -10.7683 -11.9247
LeftHand  -0.0487486 4.72404 4.83093
RightShoulder  2.90642 6.06992 25.0007
RightArm  -7.34911 14.8805 65.2188
RightForeArm  79.5341 -6.24174 12.0262
RightHand  0.354652 -8.2348 -15.3235
LeftUpLeg  -32.0406 0.636514 -4.13588
LeftLeg  16.2599 12.41 3.79443
LeftFoot  1.83496 0.565034 -4.98781
LeftToes  5.08156e-010 -6.90346e-011 -6.33378e-011
697
root  -35.5388 38.0523 34.9622 177.383 63.5191 167.865
RightUpLeg  -3.72409 1.67074 -7.40734
RightLeg  36.6618 -5.51715 -4.6487
RightFoot  -18.8411 1.07719 18.256
RightToes  1.218e-010 1.26228e-014 -6.01869e-014
Spine  -4.20446 3.45721 -0.183187
Spine1  12.3939 5.14296 -6.2406
HEad  -5.50179 3.42439 -0.792789
LeftShoulder1  1.66418 -2.60506 -22.0811
LeftArm  14.9326 16.5032 -49.5662
LeftForeArm  31.5303 -10.3008 -12.1575
LeftHand  -0.0460726 4.70335 4.13612
RightShoulder  2.88474 5.8739 25.4454
RightArm  -11.2943 13.4411 63.7289
RightForeArm  82.4534 -5.87773 10.2675
RightHand  0.407445 -8.48243 -16.041
LeftUpLeg  -30.8982 1.50622 -5.59927
LeftLeg  18.246 9.95195 3.484
LeftFoot  0.424451 0.412268 -4.02627
LeftToes  5.08156e-010 -6.90346e-011 -6.33378e-011
698
root  -34.7879 38.1607 34.3188 176.904 62.6233 168.144
RightUpLeg  -7.12275 1.14638 -7.98151
RightLeg  46.1137 -4.38929 -5.1838
RightFoot  -12.2919 0.0726254 18.7343
RightToes  1.218e-010 1.26228e-014 -6.01869e-014
Spine  -4.32566 3.35583 -0.998579
Spine1  12.4255 4.89391 -5.96148
HEad  -3.58922 2.24366 0.358459
LeftShoulder1  1.7191 -2.89229 -21.6371
LeftArm  17.5463 16.5048 -49.9157
LeftForeArm  31.8937 -12.3595 -11.075
LeftHand  -0.0389156 4.72796 2.78332
RightShoulder  2.81152 5.64952 25.4109
RightArm  -15.5449 11.461 62.4819
RightForeArm  84.0577 -5.45761 8.05468
RightHand  0.531242 -9.1165 -17.1182
LeftUpLeg  -28.9752 1.50542 -6.24741
LeftLeg  19.0864 8.90767 3.23477
LeftFoot  -0.682933 0.237393 -2.50135
LeftToes  5.08156e-010 -6.90346e-011 -6.33378e-011
699
root  -33.9854 38.3481 33.6793 176.086 61.7142 168.27
RightUpLeg  -11.1645 0.338103 -8.08321
RightLeg  55.5654 -4.38784 -7.26573
RightFoot  -3.79484 -0.803261 11.7475
RightToes  1.218e-010 1.26228e-014 -6.01869e-014
Spine  -4.23428 3.05455 -1.82883
Spine1  12.1556 4.46691 -5.55838
HEad  -1.89087 1.58645 1.18282
LeftShoulder1  1.70102 -2.85005 -21.5269
LeftArm  29.4921 16.4925 -49.0063
LeftForeArm  24.449 -18.2071 -7.28746
LeftHand  -0.0316718 4.70548 1.22627
RightShoulder  2.71254 5.26715 25.6634
RightArm  -19.241 9.37407 60.9538
RightForeArm  84.0659 -5.14017 6.08745
RightHand  0.570758 -9.30861 -17.4318
LeftUpLeg  -26.1478 1.04112 -6.64546
LeftLeg  18.9689 8.59062 3.03012
LeftFoot  -2.09815 0.18675 -2.15433
LeftToes  5.08156e-010 -6.90346e-011 -6.33378e-011
700
root  -33.2097 38.4803 33.1119 175.36 60.4181 168.398
RightUpLeg  -14.6201 -0.413545 -7.88345
RightLeg  62.3438 -3.98488 -8.74885
RightFoot  0.867811 -0.595981 5.62273
RightToes  1.218e-010 1.26228e-014 -6.01869e-014
Spine  -4.16481 2.5632 -2.99553
Spine1  11.9059 3.78896 -5.10766
HEad  -0.47754 1.17314 1.81536
LeftShoulder1  1.74517 -3.01164 -21.5191
LeftArm  37.1919 15.5358 -47.1067
LeftForeArm  21.205 -22.9839 -4.03927
LeftHand  -0.0274053 4.27697 0.474068
RightShoulder  2.55626 4.63569 26.2268
RightArm  -21.6813 7.16863 58.9806
RightForeArm  82.0587 -5.04197 4.9469
RightHand  0.524912 -8.97183 -17.567
LeftUpLeg  -23.5309 0.118209 -6.99435
LeftLeg  18.9213 8.37292 2.9315
LeftFoot  -3.57309 0.169778 -2.18434
LeftToes  5.08156e-010 -6.90346e-011 -6.33378e-011
